<?xml version="1.0" encoding="UTF-8" standalone="no"?>
<!-- Created with Inkscape (http://www.inkscape.org/) -->

<svg
   xmlns:dc="http://purl.org/dc/elements/1.1/"
   xmlns:cc="http://creativecommons.org/ns#"
   xmlns:rdf="http://www.w3.org/1999/02/22-rdf-syntax-ns#"
   xmlns:svg="http://www.w3.org/2000/svg"
   xmlns="http://www.w3.org/2000/svg"
   xmlns:sodipodi="http://sodipodi.sourceforge.net/DTD/sodipodi-0.dtd"
   xmlns:inkscape="http://www.inkscape.org/namespaces/inkscape"
   width="500"
   height="200"
   viewBox="0 0 132.29166 52.916668"
   version="1.1"
   id="svg926"
   inkscape:version="0.92.4 5da689c313, 2019-01-14"
   sodipodi:docname="test.svg">
  <defs
     id="defs920" />
  <sodipodi:namedview
     id="base"
     pagecolor="#ffffff"
     bordercolor="#666666"
     borderopacity="1.0"
     inkscape:pageopacity="0.0"
     inkscape:pageshadow="2"
     inkscape:zoom="0.82646485"
     inkscape:cx="518.92564"
     inkscape:cy="261.01603"
     inkscape:document-units="mm"
     inkscape:current-layer="layer1"
     showgrid="false"
     inkscape:window-width="2560"
     inkscape:window-height="1377"
     inkscape:window-x="0"
     inkscape:window-y="31"
     inkscape:window-maximized="1"
     units="px" />
  <metadata
     id="metadata923">
    <rdf:RDF>
      <cc:Work
         rdf:about="">
        <dc:format>image/svg+xml</dc:format>
        <dc:type
           rdf:resource="http://purl.org/dc/dcmitype/StillImage" />
        <dc:title></dc:title>
      </cc:Work>
    </rdf:RDF>
  </metadata>
  <g
     inkscape:label="Capa 1"
     inkscape:groupmode="layer"
     id="layer1"
     transform="translate(0,-244.08332)">
    <g
       id="g258"
       transform="matrix(0.25300339,0,0,0.25300339,-16.778721,229.47206)">
      <path
         d="m 443.72852,131.46484 v 16.88672 h 25.43164 c 0.006,-0.10175 1.6e-4,-0.12265 0.0117,-0.23633 -0.007,-0.11326 -0.012,-0.22662 -0.0195,-0.33984 -0.0268,-0.40236 -0.0571,-0.8048 -0.0859,-1.20703 -0.061,-0.8544 0.34012,-1.31448 0.77148,-1.34766 0.43136,-0.0332 0.89209,0.36045 0.95313,1.21485 0.029,0.40536 0.0608,0.81129 0.0879,1.21679 0.0155,0.23305 0.0301,0.46595 0.041,0.69922 h 51.36914 v -16.88672 z"
         style="fill:none"
         id="rect77"
         inkscape:connector-curvature="0" />
      <ellipse
         style="stroke:#000000;stroke-width:0.18415587px;stroke-miterlimit:10"
         id="ellipse12"
         ry="1.8710235"
         rx="3.4252992"
         cy="114.56915"
         cx="483.34064"
         class="cls-3" />
      <ellipse
         style="stroke:#000000;stroke-width:0.18415587px;stroke-miterlimit:10"
         id="ellipse14"
         ry="1.3038235"
         rx="3.3442705"
         cy="63.98521"
         cx="482.58191"
         class="cls-3" />
      <ellipse
         style="fill:none;stroke:#211915;stroke-width:6.62961102px;stroke-miterlimit:10"
         id="ellipse16"
         ry="18.813364"
         rx="20.4634"
         cy="113.67783"
         cx="483.44379"
         class="cls-4" />
      <ellipse
         style="fill:none;stroke:#211915;stroke-width:2.94649386px;stroke-miterlimit:10"
         id="ellipse18"
         ry="10.320095"
         rx="10.997788"
         cy="113.67783"
         cx="483.0018"
         class="cls-5" />
      <path
         style="stroke:#211915;stroke-width:0.18415587px;stroke-miterlimit:10"
         inkscape:connector-curvature="0"
         id="path20"
         d="m 437.95725,125.23546 14.18737,-3.13802 c -1.37012,-6.20237 -1.37012,-9.49507 0,-15.69745 l -14.21683,-3.13802 a 49.471631,49.471631 0 0 0 0.0295,21.97349 z"
         class="cls-6" />
      <path
         style="stroke:#211915;stroke-width:0.18415587px;stroke-miterlimit:10"
         inkscape:connector-curvature="0"
         id="path22"
         d="m 443.22411,91.299215 12.17639,7.962895 c 3.48422,-5.311055 5.83405,-7.609315 11.2335,-10.960955 l -7.68298,-12.36791 a 49.471631,49.471631 0 0 0 -15.72691,15.36597 z"
         class="cls-6" />
      <path
         style="stroke:#211915;stroke-width:0.18415587px;stroke-miterlimit:10"
         inkscape:connector-curvature="0"
         id="path24"
         d="m 458.77423,152.38003 7.82294,-12.27952 c -5.35525,-3.41056 -7.68298,-5.73829 -11.10828,-11.08618 l -12.27951,7.81557 a 49.471631,49.471631 0 0 0 15.56485,15.55013 z"
         class="cls-6" />
      <path
         style="stroke:#211915;stroke-width:0.18415587px;stroke-miterlimit:10"
         inkscape:connector-curvature="0"
         id="path28"
         d="m 522.82364,136.88883 -12.25005,-7.8745 c -3.44003,5.34052 -5.76776,7.66088 -11.13774,11.04935 l 7.79347,12.30161 a 49.471631,49.471631 0 0 0 15.59432,-15.47646 z"
         class="cls-6" />
      <path
         style="stroke:#211915;stroke-width:0.18415587px;stroke-miterlimit:10"
         inkscape:connector-curvature="0"
         id="path30"
         d="M 528.01683,103.24724 513.8,106.38525 c 1.37012,6.20238 1.37012,9.49509 0,15.69746 l 14.21683,3.13802 a 49.471631,49.471631 0 0 0 0,-21.97349 z"
         class="cls-6" />
      <path
         style="stroke:#211915;stroke-width:0.18415587px;stroke-miterlimit:10"
         inkscape:connector-curvature="0"
         id="path32"
         d="m 507.15566,75.947975 -7.74928,12.33108 c 5.37735,3.3811 7.71981,5.68673 11.17458,11.049345 l 12.22058,-7.926065 a 49.471631,49.471631 0 0 0 -15.64588,-15.45436 z"
         class="cls-6" />
      <path
         style="stroke:#211915;stroke-width:0.18415587px;stroke-miterlimit:10"
         inkscape:connector-curvature="0"
         id="path34"
         d="m 472.03345,71.078895 3.13802,14.21684 c 6.20237,-1.37012 9.49508,-1.37012 15.69744,0 l 3.13802,-14.21684 a 49.471631,49.471631 0 0 0 -21.97348,0 z"
         class="cls-6" />
      <line
         style="fill:none;stroke:#000000;stroke-width:0.18415587px;stroke-miterlimit:10"
         id="line36"
         y2="88.286423"
         x2="502.06558"
         y1="82.246109"
         x1="506.9126"
         class="cls-7" />
      <line
         style="stroke:#000000;stroke-width:0.18415587px;stroke-miterlimit:10"
         id="line38"
         y2="82.246109"
         x2="506.9126"
         y1="80.875992"
         x1="511.14081"
         class="cls-3" />
      <polyline
         style="fill:#9e0011"
         transform="matrix(0.73662345,0,0,0.73662345,120.00847,62.592995)"
         id="polyline40"
         points="517.45 36.36 522.02 34.01 529.81 26.35 524.06 28.18 517.45 36.36"
         class="cls-8" />
      <polyline
         style="fill:#ff3e44"
         transform="matrix(0.73662345,0,0,0.73662345,120.00847,62.592995)"
         id="polyline42"
         points="525.59 52.94 530.22 50.3 522.01 34.01 517.44 36.37 525.59 52.94"
         class="cls-9" />
      <polyline
         style="stroke:#000000;stroke-width:0.25px;stroke-miterlimit:10"
         transform="matrix(0.73662345,0,0,0.73662345,120.00847,62.592995)"
         id="polyline44"
         points="488.6 70.99 497.89 70.99 496.76 1.89 487.67 1.89 488.6 70.99"
         class="cls-3" />
      <polyline
         style="fill:#ff191f"
         transform="matrix(0.73662345,0,0,0.73662345,120.00847,62.592995)"
         id="polyline46"
         points="525.59 52.94 517.45 36.37 524.06 28.19 491.12 11.21 491.31 35.18"
         class="cls-10" />
      <polyline
         style="fill:#ff3e44"
         transform="matrix(0.73662345,0,0,0.73662345,120.00847,62.592995)"
         id="polyline48"
         points="529.81 26.35 524.06 28.19 491.12 11.21 495.69 8.52 529.81 26.35"
         class="cls-9" />
      <path
         inkscape:connector-curvature="0"
         id="path55"
         d="m 481.77936,135.71701 c -2.50466,-0.25452 -3.51658,-0.43408 -5.28508,-0.93779 -2.93572,-0.83617 -5.56029,-2.13422 -7.9525,-3.93313 -4.97182,-3.73871 -8.10631,-9.15861 -8.71936,-15.07678 -0.15187,-1.46612 -0.0603,-4.17287 0.1894,-5.59831 1.57247,-8.97656 8.87688,-16.143085 18.41987,-18.072185 l 1.00406,-0.20297 0.0558,0.64198 c 0.0307,0.35308 0.0611,1.84232 0.0676,3.309415 l 0.0118,2.66744 -0.88508,0.23195 c -4.89019,1.2816 -9.00266,4.55259 -11.00802,8.7556 -2.68927,5.63638 -1.49099,12.11425 3.07337,16.61461 2.1508,2.12066 4.51534,3.49568 7.51272,4.3688 2.8633,0.83406 6.50146,0.93047 9.41952,0.24962 3.91845,-0.91427 7.46966,-3.12292 9.77583,-6.08001 4.42403,-5.67272 4.19554,-13.16987 -0.56825,-18.64512 -0.75901,-0.87238 -1.84085,-1.83666 -2.9717,-2.64881 -1.63496,-1.17419 -4.47684,-2.39995 -6.47006,-2.79065 l -0.82007,-0.16076 -0.0586,-1.93902 c -0.0949,-3.142385 -0.0772,-4.688245 0.0536,-4.688245 0.0619,0 0.5994,0.0854 1.19434,0.18975 l 1.08173,0.18975 5.58861,2.88669 5.58862,2.886705 0.75151,0.73192 c 2.96773,2.89037 5.13222,6.90389 5.95689,11.04558 0.56308,2.82795 0.46377,6.26302 -0.26342,9.11113 -1.82415,7.14452 -7.48409,13.04953 -14.96311,15.61103 -1.14437,0.39194 -3.13421,0.8636 -4.5066,1.06821 -1.16708,0.174 -4.38178,0.30422 -5.27349,0.2136 z"
         style="fill:#000000;stroke-width:0.09013897" />
      <path
         inkscape:connector-curvature="0"
         id="path57"
         d="m 481.16969,125.31219 c -3.6678,-0.57754 -6.74136,-2.49552 -8.69021,-5.42292 -3.084,-4.63253 -2.3639,-10.59789 1.75064,-14.50236 1.32107,-1.25362 2.74891,-2.11838 4.50985,-2.73131 l 0.91298,-0.31779 0.0266,1.52802 c 0.0215,1.23733 0.004,1.528 -0.0953,1.52791 -0.21283,-2e-4 -1.59014,0.68341 -2.18733,1.08566 -0.79337,0.53438 -1.97232,1.70003 -2.47063,2.44277 -0.53107,0.79154 -0.99266,1.79195 -1.23341,2.67317 -0.15171,0.55528 -0.19066,0.96407 -0.19497,2.04601 -0.006,1.39542 0.0699,1.85745 0.48997,3.00129 0.89433,2.43503 3.19205,4.56681 5.84118,5.41933 1.95472,0.62904 4.41035,0.62765 6.33439,-0.004 2.45949,-0.80692 4.46062,-2.5132 5.5372,-4.72131 0.64982,-1.3328 0.79446,-2.00709 0.79275,-3.6957 -0.001,-1.30421 -0.0245,-1.51797 -0.24279,-2.23381 -0.74581,-2.44633 -2.3577,-4.34063 -4.71343,-5.53921 l -0.8444,-0.42963 -4.2e-4,-1.46476 c -3.4e-4,-1.2306 0.0208,-1.46476 0.13245,-1.46476 0.17612,0 1.35497,0.47096 2.05641,0.82155 1.58266,0.79106 3.34939,2.30067 4.38918,3.75043 0.60162,0.83884 1.31213,2.22879 1.60971,3.14902 0.38333,1.1854 0.50309,2.00815 0.50309,3.45624 0,1.54951 -0.13403,2.3757 -0.59955,3.6957 -1.35391,3.83906 -4.68502,6.73146 -8.89292,7.72173 -0.78732,0.18527 -1.24347,0.23085 -2.57899,0.25762 -0.89238,0.0179 -1.85629,-0.004 -2.14203,-0.0493 z"
         style="fill:#000000;stroke-width:0.09013897" />
      <path
         inkscape:connector-curvature="0"
         id="path59"
         d="m 481.8695,135.70992 c -3.74361,-0.3339 -6.72613,-1.14831 -9.7258,-2.65572 -7.26021,-3.64842 -11.99276,-10.64466 -12.3695,-18.28611 -0.0728,-1.47682 0.0964,-3.82463 0.37501,-5.2045 0.49788,-2.46556 1.70132,-5.33886 3.13115,-7.47586 2.84022,-4.24494 7.11578,-7.478995 12.08938,-9.144475 1.27672,-0.42752 3.15054,-0.89461 3.68392,-0.9183 l 0.38209,-0.0169 0.057,0.5859 c 0.0314,0.32225 0.0384,-1.32053 0.0155,-3.65062 -0.0228,-2.3301 -0.0594,-4.30152 -0.0814,-4.38095 -0.0362,-0.13104 -0.11695,-0.13252 -0.87186,-0.016 -0.45757,0.0706 -1.38704,0.24012 -2.0655,0.37667 l -1.23356,0.24827 -0.0457,-0.18719 c -0.31187,-1.27761 -3.03255,-13.78134 -3.00474,-13.80916 0.15406,-0.15405 3.91864,-0.77632 5.7367,-0.94825 0.62311,-0.0589 1.1735,-0.14304 1.22308,-0.1869 0.058,-0.0514 0.0786,-1.18786 0.0579,-3.18779 l -0.0323,-3.10802 0.31442,-0.29653 c 0.50083,-0.47234 1.3403,-0.7091 2.68954,-0.75855 0.66864,-0.0245 1.39807,0.002 1.77147,0.0654 0.75067,0.12661 1.66514,0.53543 1.85753,0.83041 0.1107,0.16974 0.14902,0.73028 0.2008,2.93649 0.0352,1.49969 0.0359,2.7267 10e-4,2.7267 -0.0344,0 -0.22155,-0.0811 -0.41591,-0.18027 -0.19436,-0.0992 -0.40229,-0.18028 -0.46207,-0.18028 -0.0598,0 -0.85074,0.43605 -1.75766,0.969 l -1.64896,0.96899 0.0513,7.75195 c 0.0282,4.26358 0.0773,8.25455 0.10904,8.86882 l 0.0577,1.11687 2.20841,1.14829 2.2084,1.14828 0.061,0.60515 c 0.0594,0.58913 0.16439,0.91248 0.16439,0.50609 0,-0.17299 0.0361,-0.19513 0.24788,-0.15205 0.13633,0.0277 0.64947,0.11709 1.1403,0.19857 0.82406,0.13681 1.02095,0.21462 2.57052,1.01589 0.92296,0.47724 3.4216,1.76009 5.55252,2.850765 l 3.87441,1.98307 0.90374,0.90138 c 2.57704,2.57034 4.46287,5.7828 5.48791,9.3485 0.75429,2.62395 0.94621,5.64626 0.54311,8.55296 -0.91274,6.58159 -5.1982,12.56569 -11.48677,16.03983 -2.82321,1.5597 -6.36201,2.63654 -9.43824,2.87202 -1.35676,0.10386 -3.61446,0.17399 -4.12768,0.1282 z m 4.68723,-6.73828 c 3.71265,-0.67424 6.84629,-2.23048 9.36083,-4.64882 1.46429,-1.40827 2.33939,-2.58469 3.20332,-4.30629 2.00403,-3.99356 2.00904,-8.63616 0.0137,-12.65922 -1.55083,-3.12679 -4.06199,-5.59778 -7.34977,-7.23221 -1.77668,-0.88322 -2.75064,-1.2141 -5.05258,-1.71645 -0.18343,-0.04 -0.18474,-0.0213 -0.1474,2.09767 0.0207,1.17593 0.0555,2.15717 0.0773,2.18053 0.0218,0.0233 0.0728,-0.0114 0.11349,-0.0771 0.0583,-0.0943 0.27153,-0.0405 1.00917,0.25439 2.84164,1.13602 5.10339,3.20984 6.4674,5.93 0.80959,1.61452 1.08563,2.84287 1.08928,4.84718 0.003,1.60799 -0.0845,2.21977 -0.49147,3.43972 -1.27288,3.81546 -4.29938,6.6752 -8.27813,7.82199 -1.20869,0.34838 -1.75487,0.40987 -3.64702,0.41061 -1.95233,7.2e-4 -2.55216,-0.0874 -4.07499,-0.59878 -2.89936,-0.97369 -5.253,-2.89937 -6.78509,-5.55135 -2.86017,-4.95089 -1.43677,-11.19958 3.36162,-14.75737 0.86013,-0.63775 2.54384,-1.50138 3.53453,-1.81299 l 0.69696,-0.21921 -0.0119,-2.16334 c -0.007,-1.18983 -0.0281,-2.05909 -0.0479,-1.93168 -0.0318,0.20456 -0.11191,0.251 -0.68507,0.39706 -4.37605,1.11517 -8.05021,3.69306 -10.38091,7.28355 -1.68124,2.58996 -2.51314,5.94294 -2.2213,8.95287 0.38738,3.99521 2.30609,7.5128 5.59832,10.26345 2.42848,2.02898 5.62379,3.40274 9.0139,3.87535 1.25344,0.17473 4.4846,0.12909 5.63369,-0.0796 z m -1.46337,-6.63675 c 1.807,-0.36825 3.33847,-1.15711 4.65972,-2.40025 2.02334,-1.90373 2.91974,-4.13539 2.76667,-6.88788 -0.13685,-2.46097 -1.52587,-4.8715 -3.68571,-6.39623 -0.57591,-0.40657 -1.94762,-1.16677 -2.10532,-1.16677 -0.0315,0 -0.0297,2.1194 0.004,4.70977 0.06,4.59685 0.0572,4.71654 -0.11725,4.99228 -0.96477,1.52465 -4.77535,1.749 -6.21858,0.36611 -0.5336,-0.51129 -0.55568,-0.60971 -0.55568,-2.47727 0,-2.27301 -0.11761,-8.03761 -0.15993,-7.83877 -0.0185,0.0868 -0.0834,0.15775 -0.1444,0.15775 -0.21449,0 -1.6168,0.72982 -2.27019,1.18151 -0.77958,0.53892 -1.97587,1.75593 -2.44141,2.48371 -0.45893,0.71742 -0.88996,1.67856 -1.12956,2.51877 -0.26309,0.92255 -0.28733,3.05746 -0.0457,4.03136 0.82393,3.32208 3.6668,5.98088 7.18397,6.71883 1.20589,0.25302 3.0375,0.25606 4.25929,0.007 z"
         style="fill:#000000;stroke-width:0.09013897" />
      <g
         id="g225">
        <path
           style="fill:#000000;stroke-width:0.09013897"
           d="m 437.84145,124.19904 c -0.2457,-1.14735 -0.58148,-3.30142 -0.78863,-5.05921 -0.23015,-1.95295 -0.22939,-7.97342 10e-4,-9.91529 0.29384,-2.47392 0.79187,-5.44723 0.95723,-5.71479 0.0544,-0.0881 1.43914,0.1879 6.05485,1.20665 7.19678,1.58842 7.83666,1.73337 7.89071,1.78742 0.0231,0.0231 -0.0795,0.66502 -0.22811,1.42644 -0.93668,4.80029 -0.93804,7.92233 -0.005,12.63577 0.1552,0.78441 0.2682,1.43838 0.25113,1.45327 -0.0243,0.0211 -8.75006,1.95904 -13.15878,2.9224 l -0.77869,0.17015 -0.19548,-0.91281 z"
           id="path61"
           inkscape:connector-curvature="0" />
        <path
           style="fill:#000000;stroke-width:0.09013897"
           d="m 458.11788,151.84318 c -5.45653,-3.56003 -10.41063,-8.46231 -14.07127,-13.92411 l -0.70463,-1.05133 6.04385,-3.84574 c 3.32412,-2.11516 6.0616,-3.828 6.08329,-3.80631 0.0217,0.0216 0.41358,0.58973 0.87086,1.26232 2.70692,3.98137 4.95968,6.21603 8.96648,8.89444 0.60731,0.40597 1.10421,0.75969 1.10421,0.78606 0,0.12502 -7.62819,12.01323 -7.70689,12.01085 -0.0496,-0.001 -0.31323,-0.14828 -0.5859,-0.32618 z"
           id="path63"
           inkscape:connector-curvature="0" />
        <path
           style="fill:#000000;stroke-width:0.09013897"
           d="m 480.92304,158.38315 c -2.54842,-0.0956 -4.79493,-0.37097 -8.05438,-0.98728 -0.33986,-0.0642 -0.63314,-0.15975 -0.65173,-0.21219 -0.0407,-0.11487 2.9641,-13.80834 3.04858,-13.89281 0.0326,-0.0326 0.35542,0.005 0.71753,0.0829 2.84204,0.61316 4.57522,0.81158 7.05826,0.80809 2.28663,-0.003 3.72123,-0.15416 6.26127,-0.65877 0.76289,-0.15155 1.41596,-0.24413 1.45126,-0.20571 0.1013,0.1102 3.08042,13.72054 3.03128,13.84861 -0.0258,0.0674 -0.5598,0.21429 -1.2926,0.35568 -3.7912,0.73149 -7.55796,1.01197 -11.56947,0.86148 z"
           id="path65"
           inkscape:connector-curvature="0" />
        <path
           style="fill:#000000;stroke-width:0.09013897"
           d="m 507.08268,151.92788 c -0.13035,-0.18654 -5.42952,-8.54038 -7.26113,-11.44674 l -0.24085,-0.38217 0.78927,-0.51641 c 4.34721,-2.84428 6.70539,-5.15763 9.48129,-9.30102 0.40208,-0.60018 0.75096,-1.09122 0.77529,-1.09122 0.0403,0 11.93866,7.63522 12.02156,7.71429 0.0559,0.0533 -1.36903,2.12603 -2.31874,3.3728 -2.83852,3.72643 -6.06485,6.91917 -9.816,9.71382 -1.10157,0.82068 -3.10157,2.18453 -3.20348,2.18453 -0.0297,0 -0.13194,-0.11155 -0.22721,-0.24788 z"
           id="path67"
           inkscape:connector-curvature="0" />
        <path
           style="fill:#000000;stroke-width:0.09013897"
           d="m 520.76447,123.51863 c -5.17557,-1.14842 -6.80267,-1.54059 -6.79368,-1.63743 0.007,-0.07 0.1158,-0.65465 0.24289,-1.29915 0.45945,-2.32992 0.61317,-3.63249 0.6654,-5.63842 0.0653,-2.50838 -0.18568,-4.96775 -0.77849,-7.62824 -0.0969,-0.43497 -0.14078,-0.81276 -0.0975,-0.83953 0.12287,-0.0759 13.88141,-3.09633 13.92091,-3.05604 0.0627,0.0639 0.48391,2.25758 0.67391,3.50966 0.8507,5.6059 0.66912,11.93824 -0.49942,17.41587 -0.12972,0.60813 -0.1736,0.6976 -0.33879,0.69097 -0.10438,-0.004 -3.25225,-0.68715 -6.99527,-1.51769 z"
           id="path69"
           inkscape:connector-curvature="0" />
        <path
           style="fill:#000000;stroke-width:0.09013897"
           d="m 510.10851,98.41956 c -0.27058,-0.41771 -1.62417,-3.015635 -3.00798,-5.773205 l -2.51601,-5.01374 2.88019,-2.81991 2.88018,-2.81991 -2.5647,-1.33778 c -1.41058,-0.73578 -2.57263,-1.34319 -2.58233,-1.34981 -0.0219,-0.0149 1.85968,-3.04336 1.95471,-3.14613 0.0379,-0.041 0.64442,0.31261 1.34773,0.78588 2.84934,1.91734 4.9532,3.64842 7.40396,6.09204 2.42581,2.41875 4.19046,4.53825 5.9623,7.16125 l 0.78685,1.16484 -0.29096,0.19766 c -0.47879,0.32526 -11.17437,7.265095 -11.47987,7.448725 l -0.2821,0.16956 z"
           id="path71"
           inkscape:connector-curvature="0" />
        <path
           style="fill:#000000;stroke-width:0.09013897"
           d="m 481.82443,135.71567 c -0.17352,-0.0197 -0.72111,-0.0785 -1.21688,-0.13062 -5.40267,-0.56778 -10.71483,-3.08892 -14.51438,-6.88848 -3.56385,-3.56383 -5.74443,-8.07854 -6.27027,-12.98202 -0.20918,-1.95071 0.0145,-5.03806 0.50665,-6.99282 1.57254,-6.24591 5.94986,-11.54403 11.98522,-14.506385 2.13208,-1.04649 4.19447,-1.75251 6.17452,-2.11373 0.47097,-0.0859 0.90609,-0.17092 0.96691,-0.1889 0.0862,-0.0255 0.0986,-0.83473 0.0561,-3.6644 -0.03,-1.99745 -0.0885,-3.66888 -0.13007,-3.71429 -0.0897,-0.098 -1.04492,0.0354 -2.83096,0.39522 -0.69406,0.13984 -1.27553,0.24155 -1.29215,0.22603 -0.0806,-0.0753 -3.10435,-13.9296 -3.05169,-13.98226 0.13739,-0.13739 3.10506,-0.65614 5.06495,-0.88535 0.6445,-0.0754 1.3442,-0.16012 1.55491,-0.18831 l 0.38308,-0.0513 v -3.18784 -3.18785 l 0.33803,-0.27965 c 0.5331,-0.44105 1.33061,-0.65275 2.64652,-0.70254 0.67412,-0.0255 1.395,5.7e-4 1.77146,0.0641 0.75246,0.12692 1.66491,0.53548 1.85965,0.83268 0.11353,0.17327 0.15033,0.71016 0.20127,2.93648 0.0343,1.49845 0.034,2.72445 -6.7e-4,2.72445 -0.0347,0 -0.22203,-0.0811 -0.41639,-0.18028 -0.19435,-0.0991 -0.39663,-0.18028 -0.4495,-0.18028 -0.0529,0 -0.84309,0.43605 -1.75603,0.969 l -1.65989,0.96899 0.0499,7.07591 c 0.0274,3.89175 0.0757,7.88032 0.1074,8.86347 l 0.0575,1.78757 2.2084,1.14974 2.2084,1.14975 0.054,0.55702 c 0.0493,0.50851 0.17132,0.88174 0.17132,0.52409 0,-0.1855 -0.0793,-0.1882 1.21682,0.0413 l 1.08173,0.19159 5.58861,2.87949 c 6.24838,3.219415 5.80885,2.932675 7.50306,4.894915 2.28413,2.64551 4.07867,6.27663 4.74871,9.60868 0.57008,2.83494 0.52026,6.11062 -0.13553,8.91174 -0.67907,2.90049 -2.21191,5.98425 -4.21202,8.4737 -2.87592,3.57953 -7.24257,6.4735 -11.71975,7.7672 -1.40741,0.40667 -3.30601,0.77768 -4.50599,0.88053 -1.21697,0.10431 -3.88031,0.18623 -4.343,0.1336 z m 3.56049,-6.61899 c 5.24272,-0.49436 10.15233,-3.38208 12.86718,-7.56817 3.42154,-5.27577 3.11358,-11.81148 -0.79214,-16.81093 -1.83811,-2.35283 -4.33746,-4.16646 -7.38247,-5.357 -0.94229,-0.36841 -2.88469,-0.90695 -3.27288,-0.90741 l -0.20282,-2.4e-4 0.001,1.96052 c 7.2e-4,1.07828 0.0312,2.00108 0.0676,2.05066 0.0364,0.0496 0.16475,0.10109 0.28518,0.11447 0.33718,0.0375 1.67329,0.60519 2.39178,1.01629 1.44511,0.82683 3.01991,2.23898 3.91582,3.5114 0.95497,1.35629 1.70076,3.07643 1.94941,4.49623 0.17195,0.9818 0.17397,3.29252 0.004,4.18262 -0.35038,1.83121 -1.31379,3.78559 -2.63224,5.33969 -1.66462,1.96217 -4.43706,3.54586 -7.09904,4.05519 -0.97624,0.18678 -4.0111,0.18384 -5.00582,-0.005 -2.63977,-0.50075 -5.4793,-2.14798 -7.09879,-4.11804 -1.92225,-2.33835 -2.76756,-4.58964 -2.76756,-7.37068 0,-3.10699 1.13713,-5.79149 3.41965,-8.07296 1.36631,-1.36569 2.83405,-2.28064 4.77193,-2.97473 l 0.81125,-0.29056 0.0243,-1.90256 c 0.0198,-1.54669 10e-4,-1.90255 -0.097,-1.90255 -0.24611,0 -2.07041,0.55013 -2.87909,0.86821 -3.63027,1.4279 -6.70796,4.03354 -8.52321,7.21593 -1.73451,3.04085 -2.29225,6.64731 -1.55289,10.04128 1.3041,5.98642 6.51084,10.82812 13.07297,12.15646 1.75326,0.35491 3.80752,0.45243 5.72383,0.27173 z m 0.0748,-6.83528 c 3.40329,-0.90832 5.99593,-3.36953 6.84008,-6.49336 0.26878,-0.99462 0.26853,-3.18682 -4.5e-4,-4.1727 -0.22773,-0.83464 -0.68861,-1.85576 -1.15925,-2.56842 -0.52829,-0.79999 -1.7006,-1.97082 -2.50684,-2.50371 -0.66122,-0.43703 -1.76412,-1.03945 -1.90303,-1.03945 -0.0313,0 -0.0295,2.1194 0.004,4.70977 0.0595,4.60014 0.0568,4.71635 -0.11823,4.99228 -0.96718,1.52485 -4.77572,1.74905 -6.21901,0.36611 -0.55025,-0.52724 -0.55457,-0.55119 -0.5674,-3.1455 -0.007,-1.30385 -0.0368,-3.43439 -0.0676,-4.73456 l -0.0559,-2.36392 -0.69823,0.30371 c -1.1068,0.48144 -2.01698,1.10206 -2.90941,1.98381 -0.96575,0.95419 -1.48614,1.69213 -1.94342,2.75582 -0.5356,1.24591 -0.65413,1.85021 -0.65413,3.33514 0,1.45539 0.11652,2.06976 0.6186,3.26166 0.40934,0.97173 1.04279,1.89029 1.88783,2.73754 1.39955,1.4032 3.16055,2.333 5.12603,2.70649 0.98025,0.18628 3.41414,0.11274 4.32632,-0.13071 z"
           id="path73"
           inkscape:connector-curvature="0" />
        <path
           style="fill:#000000;stroke-width:0.09013897"
           d="m 449.3757,95.206325 c -3.24655,-2.12662 -5.91421,-3.90078 -5.92814,-3.94257 -0.0356,-0.10696 1.30641,-2.05594 2.29792,-3.3371 1.3584,-1.75523 2.49078,-3.03272 4.21264,-4.75248 2.42677,-2.42382 4.513,-4.14097 7.29516,-6.00457 1.30521,-0.87427 1.63505,-1.05872 1.72298,-0.96353 0.0598,0.0648 1.74269,2.7543 3.73969,5.97677 1.99702,3.22247 3.66558,5.90376 3.70792,5.95842 0.051,0.0659 -0.49224,0.4817 -1.61316,1.23453 -3.79505,2.54885 -5.81109,4.53109 -8.47566,8.333475 -0.52979,0.75605 -0.98426,1.37215 -1.00991,1.36913 -0.0256,-0.003 -2.7029,-1.74547 -5.94944,-3.872075 z"
           id="path75"
           inkscape:connector-curvature="0" />
      </g>
    </g>
    <g
       transform="matrix(0.25300339,0,0,0.25300339,-16.769464,229.43498)"
       aria-label="Hackiit"
       style="font-style:normal;font-weight:normal;font-size:40px;line-height:1.25;font-family:sans-serif;letter-spacing:0px;word-spacing:0px;fill:#000000;fill-opacity:1;stroke:none"
       id="text61">
      <g
         id="g1128">
        <path
           id="path189"
           style="font-style:normal;font-variant:normal;font-weight:normal;font-stretch:normal;font-size:192px;font-family:Bombardier;-inkscape-font-specification:'Bombardier, Normal';font-variant-ligatures:normal;font-variant-caps:normal;font-variant-numeric:normal;font-feature-settings:normal;text-align:start;writing-mode:lr-tb;text-anchor:start"
           d="m 148.58386,133.37769 h -22.272 v 50.304 H 94.439865 v -50.304 h -22.272 v 122.88 h 22.272 v -50.304 h 31.871995 v 50.304 h 22.272 z"
           inkscape:connector-curvature="0" />
        <path
           id="path191"
           style="font-style:normal;font-variant:normal;font-weight:normal;font-stretch:normal;font-size:192px;font-family:Bombardier;-inkscape-font-specification:'Bombardier, Normal';font-variant-ligatures:normal;font-variant-caps:normal;font-variant-numeric:normal;font-feature-settings:normal;text-align:start;writing-mode:lr-tb;text-anchor:start"
           d="m 242.09686,173.88969 -15.36,-15.36 h -43.776 l -15.36,15.36 v 5.952 h 52.224 v 17.28 h -36.864 l -17.28,17.28 v 26.496 l 15.36,15.36 h 27.648 l 11.136,-11.136 17.28,11.136 h 4.992 z m -22.272,62.016 h -31.872 v -18.432 h 31.872 z"
           inkscape:connector-curvature="0" />
        <path
           id="path193"
           style="font-style:normal;font-variant:normal;font-weight:normal;font-stretch:normal;font-size:192px;font-family:Bombardier;-inkscape-font-specification:'Bombardier, Normal';font-variant-ligatures:normal;font-variant-caps:normal;font-variant-numeric:normal;font-feature-settings:normal;text-align:start;writing-mode:lr-tb;text-anchor:start"
           d="m 334.88686,240.89769 v -5.952 h -51.264 v -55.104 h 51.264 v -5.952 l -15.36,-15.36 h -42.816 l -15.36,15.36 v 67.008 l 15.36,15.36 h 42.816 z"
           inkscape:connector-curvature="0" />
        <path
           id="path195"
           style="font-style:normal;font-variant:normal;font-weight:normal;font-stretch:normal;font-size:192px;font-family:Bombardier;-inkscape-font-specification:'Bombardier, Normal';font-variant-ligatures:normal;font-variant-caps:normal;font-variant-numeric:normal;font-feature-settings:normal;text-align:start;writing-mode:lr-tb;text-anchor:start"
           d="m 441.44386,256.06569 -32.064,-63.936 32.064,-33.6 h -27.072 l -42.816,44.544 v -77.376 l -4.032,0.384 -18.048,6.912 v 123.264 h 22.08 v -25.728 l 21.312,-21.312 24.576,46.848 z"
           inkscape:connector-curvature="0" />
        <path
           sodipodi:nodetypes="ccccc"
           inkscape:connector-curvature="0"
           id="path197"
           style="fill:#ff191f;fill-opacity:1"
           d="m 473.37286,158.52969 h -22.272 v 97.728 h 22.272 z" />
        <path
           sodipodi:nodetypes="ccccc"
           inkscape:connector-curvature="0"
           id="path199"
           style="fill:#ff191f;fill-opacity:1"
           d="m 514.99786,158.52969 h -22.272 v 97.728 h 22.272 z" />
        <path
           id="path201"
           style="font-style:normal;font-variant:normal;font-weight:normal;font-stretch:normal;font-size:192px;font-family:Bombardier;-inkscape-font-specification:'Bombardier, Normal';font-variant-ligatures:normal;font-variant-caps:normal;font-variant-numeric:normal;font-feature-settings:normal;text-align:start;writing-mode:lr-tb;text-anchor:start"
           d="m 581.19886,179.84169 v -21.312 h -21.12 v -32.832 h -4.8 l -17.472,8.64 v 24.192 l -11.52,16.32 v 4.992 h 11.52 v 61.056 l 15.36,15.36 h 27.648 v -21.312 h -20.736 v -55.104 z"
           inkscape:connector-curvature="0" />
      </g>
    </g>
  </g>
</svg>
